<svg xmlns="http://www.w3.org/2000/svg" viewBox="0 0 50.01 46.89"><defs><style>.cls-1{fill:#fff;}</style></defs><g id="Layer_2" data-name="Layer 2"><g id="Layer_1-2" data-name="Layer 1"><path class="cls-1" d="M12.42,9.35V4.94A4.64,4.64,0,0,1,16.78,0h.56Q25,0,32.6,0a4.63,4.63,0,0,1,4.94,4.3,3.87,3.87,0,0,1,0,.59V9.35h7.82A4.53,4.53,0,0,1,50,13.79a.67.67,0,0,1,0,.2V42.25a4.38,4.38,0,0,1-4.15,4.63H4.71A4.47,4.47,0,0,1,0,42.67V42.4c0-9.56,0-19.11.08-28.66C.08,11,2.14,9.39,4.91,9.35,7.31,9.32,9.78,9.35,12.42,9.35ZM28.09,25V20.2c0-1-.32-1.47-1.37-1.42a34.05,34.05,0,0,1-3.5,0c-1-.05-1.42.38-1.38,1.4V25h-4.9c-1,0-1.45.42-1.44,1.41s0,2.24,0,3.36.48,1.59,1.59,1.56h4.75c0,1.65.08,3.13,0,4.61-.08,1.33.47,1.75,1.72,1.65a20.61,20.61,0,0,1,2.94,0c1.23.09,1.66-.42,1.6-1.63-.08-1.51,0-3,0-4.63H33c1,0,1.49-.37,1.48-1.39s0-2.33,0-3.5S34,25,32.88,25C31.34,25.06,29.81,25,28.09,25ZM31.15,6.33H18.87V9.25H31.15Z"/></g></g></svg>