<svg xmlns="http://www.w3.org/2000/svg" viewBox="0 0 50.86 45.2"><defs><style>.cls-1{fill:#fff;}</style></defs><g id="Layer_2" data-name="Layer 2"><g id="Layer_1-2" data-name="Layer 1"><path class="cls-1" d="M.13,14.86c2.21.3,4.4.75,6.61.84a28.7,28.7,0,0,0,6-.39c2.11-.35,3.67-2.37,2.08-4.87A18.91,18.91,0,0,1,13.35,7.8c-.76-1.85-1.08-3.74.24-5.51A5.81,5.81,0,0,1,19.06.06c4.54.43,6.27,4.15,3.81,8A19.14,19.14,0,0,0,21.16,11c-1,2.32.16,4.22,2.65,4.58a20.88,20.88,0,0,0,9.3-1.18l5-1.61A44.56,44.56,0,0,0,37,17.61a51.15,51.15,0,0,0-.63,8c.07,2.5,1.67,3.16,3.94,2.06a21.81,21.81,0,0,1,4.72-2,4.58,4.58,0,0,1,5.52,3.39l.06.27a6.85,6.85,0,0,1-.35,4.8A4.41,4.41,0,0,1,45,36.55a11.86,11.86,0,0,1-2.28-1c-.7-.38-1.33-.89-2-1.26-3-1.59-5.28-.33-5.33,3,0,2.21.31,4.42.5,6.79-2.21.24-4.61.57-7,.73a32.46,32.46,0,0,1-5.4,0c-3-.28-4.09-2.41-2.62-5.11.53-1,1.2-1.83,1.72-2.78a4.93,4.93,0,0,0-.36-5.77C20.63,29.46,17.43,29,15,30.08a4.49,4.49,0,0,0-2.61,5,11.82,11.82,0,0,0,1.47,3.28,16.6,16.6,0,0,0,1.3,1.7A2.54,2.54,0,0,1,15,43.65a2.21,2.21,0,0,1-.6.41,7,7,0,0,1-2.85,1,34.73,34.73,0,0,1-10.9-.74A1.11,1.11,0,0,1,0,43.5V15.11S0,15.06.13,14.86Z"/></g></g></svg>