<svg xmlns="http://www.w3.org/2000/svg" viewBox="0 0 40.82 54.53"><defs><style>.cls-1{fill:#fff;}</style></defs><g id="Layer_2" data-name="Layer 2"><g id="Layer_1-2" data-name="Layer 1"><path class="cls-1" d="M34,49.41l-5,4.16c-1.45,1.19-2.14,1.21-3.6,0-1.65-1.35-3.27-2.72-5-4.16-1.74,1.44-3.47,2.82-5.15,4.27a2.25,2.25,0,0,1-3.18.18c-.06-.06-.13-.12-.18-.18-1.64-1.43-3.34-2.78-5.1-4.24-1.21,1.42-2.4,2.73-3.49,4.11-.61.76-1.38,1.3-2.19.77A2.72,2.72,0,0,1,.06,52.39c-.08-5,0-10,0-15v-34a3,3,0,0,1,0-1.2C.38,1.49.69.53,1.29.22,1.74,0,2.78.53,3.29,1c1.24,1.25,2.32,2.66,3.54,4.1,1.75-1.44,3.36-2.81,5-4.14s2.08-1.25,3.58,0,3.27,2.72,5,4.19l4.87-4c1.62-1.35,2.21-1.36,3.82,0L34,5.18c1.17-1.37,2.23-2.78,3.47-4C38,.66,39.14.07,39.58.3a2.88,2.88,0,0,1,1.2,2.08q.09,24.93,0,49.86a2.73,2.73,0,0,1-1.28,2.07c-.46.22-1.54-.41-2.07-.93C36.21,52.17,35.17,50.79,34,49.41ZM20.45,25.54H8.75c-1.23,0-2,.17-2,1.7s.64,1.82,1.93,1.82H32.23c1.37,0,1.9-.5,1.89-1.88s-.75-1.65-1.94-1.64C28.25,25.56,24.35,25.54,20.45,25.54Zm-.07-10.13H8.51c-1.16,0-1.8.23-1.78,1.58s.38,1.84,1.74,1.83q11.94-.06,23.89,0c1.28,0,1.69-.53,1.71-1.71s-.38-1.73-1.67-1.71C28.39,15.45,24.38,15.41,20.38,15.41Zm.06,20.4h-12c-1.28,0-1.69.48-1.68,1.7s.39,1.72,1.68,1.71q11.94-.06,23.88,0c1.37,0,1.76-.55,1.77-1.8s-.56-1.63-1.77-1.61C28.35,35.85,24.39,35.81,20.44,35.81Z"/></g></g></svg>