<svg xmlns="http://www.w3.org/2000/svg" viewBox="0 0 52.99 47.06"><defs><style>.cls-1{fill:#fff;}</style></defs><g id="Layer_2" data-name="Layer 2"><g id="Layer_1-2" data-name="Layer 1"><path class="cls-1" d="M14.76,11.28A11.9,11.9,0,0,1,25.94,0C31.37-.39,36.77,3.88,37.82,9.3a11.48,11.48,0,0,1-1.25,7.47c-2.31,4.71-5.59,8.75-8.94,12.74-.63.76-1.49,1-2.15.17-4-4.71-8-9.4-10.07-15.35A24.33,24.33,0,0,1,14.76,11.28ZM26.46,7.8a3.88,3.88,0,0,0-3.88,3.82,3.81,3.81,0,0,0,3.79,3.83h.06a4,4,0,0,0,3.91-3.82A3.9,3.9,0,0,0,26.46,7.8Z"/><path class="cls-1" d="M38.28,47.06V21.8a1.52,1.52,0,0,1,1.06-1.67c3.72-1.63,7.4-3.36,11.1-5C52,14.44,53,15,53,16.69V39a3,3,0,0,1-1.83,2.94C46.92,43.61,42.7,45.27,38.28,47.06Z"/><path class="cls-1" d="M12.67,15.49c1.18,2.5,2.17,4.7,2.07,7.4-.22,5.72-.08,11.46,0,17.19a1.48,1.48,0,0,1-1,1.59C10,43.32,6.34,45,2.63,46.67,1,47.39,0,46.78,0,45V23a3,3,0,0,1,1.61-3C5.21,18.44,8.91,17,12.67,15.49Z"/><path class="cls-1" d="M17.6,24.55C19.44,26.9,21,29,22.66,31c2.21,2.77,5.31,2.79,7.55,0,1.41-1.73,2.74-3.52,4.11-5.29l.9-1.09V46.92c-.38-.09-.74-.16-1.09-.27C29,45,23.92,43.23,18.81,41.56c-.87-.28-1.25-.63-1.24-1.63C17.63,34.94,17.6,29.92,17.6,24.55Z"/></g></g></svg>