<svg xmlns="http://www.w3.org/2000/svg" viewBox="0 0 43.35 57.7"><defs><style>.cls-1{fill:#fff;}</style></defs><g id="Layer_2" data-name="Layer 2"><g id="Layer_1-2" data-name="Layer 1"><path class="cls-1" d="M14.26,7.26C15.45,2.47,17.83.14,21.56,0s6.08,2.2,7.55,7.25c2.61,0,5.29.14,7.94,0a5.73,5.73,0,0,1,6.27,5.15,5.51,5.51,0,0,1,0,.91c-.13,12.94,0,25.88-.08,38.82,0,3.56-2.13,5.55-5.69,5.56H5.81C2.17,57.7,0,55.51,0,51.86V13.19C0,9.46,2.2,7.33,5.94,7.3,8.7,7.24,11.51,7.26,14.26,7.26ZM18.4,37.35c-1.78-1.75-3.41-3.3-5-4.91a1.55,1.55,0,0,0-2.16-.39,1.52,1.52,0,0,0-.34.33q-1.38,1.35-2.73,2.73a1.39,1.39,0,0,0-.26,2,1.33,1.33,0,0,0,.26.27q4.39,4.47,8.77,9a1.58,1.58,0,0,0,2.61,0c1.53-1.57,3.11-3.11,4.67-4.66L34.64,31.4c1.51-1.5,1.5-1.78.07-3.26L33,26.41c-1.76-1.8-1.87-1.8-3.69,0ZM21.7,9.89a2.74,2.74,0,0,0,2.72-2.62A2.81,2.81,0,0,0,21.8,4.52,2.78,2.78,0,0,0,19,7.26,2.68,2.68,0,0,0,21.7,9.89Z"/></g></g></svg>