<svg xmlns="http://www.w3.org/2000/svg" viewBox="0 0 57.94 46.25"><defs><style>.cls-1{fill:#fff;}</style></defs><g id="Layer_2" data-name="Layer 2"><g id="Layer_1-2" data-name="Layer 1"><path class="cls-1" d="M42.58,28.81a1.75,1.75,0,0,0,.12-.32c.24-3.21.24-3.21-3-3.21H15.33V28.9h4.19c2.57,0,3.6,1,3.6,3.62V43c0,2.21-1,3.26-3.26,3.26H6.14C4,46.25,2.9,45.17,2.89,43V32.25c0-2.19,1.15-3.32,3.36-3.34h4.42c.06-.13.12-.26.17-.39.27-3.23.27-3.23-2.94-3.23H1.82C.41,25.29.05,24.91,0,23.54,0,21.54.26,21.07,1.69,21c1-.07,2,0,3,0h22V17.44H21.26c-2.88,0-3.85-1-3.86-3.9V3.32A3,3,0,0,1,20.66,0H37.23c2.16,0,3.26,1.14,3.28,3.28V14c0,2.3-1.07,3.36-3.41,3.41H31.53a1,1,0,0,0-.31.11v3.39H55.56c1.9,0,2.38.48,2.38,2.23s-.44,2.11-2.16,2.11H47.17v3.62H51.4c2.5,0,3.57,1.05,3.57,3.51V43c0,2.18-1.06,3.23-3.27,3.23H38c-2.18,0-3.23-1.09-3.24-3.28V32.22a3,3,0,0,1,2.65-3.31,2.48,2.48,0,0,1,.61,0h4.27A1.81,1.81,0,0,0,42.58,28.81ZM34.67,5.88H23.26v5.6H34.72ZM49.15,40.45V34.84H40.57v5.61Zm-31.85,0v-5.6H8.71v5.6Z"/></g></g></svg>