<svg xmlns="http://www.w3.org/2000/svg" viewBox="0 0 54.99 47.76"><defs><style>.cls-1{fill:#fff;}</style></defs><g id="Layer_2" data-name="Layer 2"><g id="Layer_1-2" data-name="Layer 1"><path class="cls-1" d="M0,32.79V27.44A4.2,4.2,0,0,1,3.21,23c2.56-.85,5-1.95,7.61-2.76,1.54-.49,2.17-1.19,2.07-2.89-.16-2.9-.06-5.81,0-8.72,0-2.73.74-3.71,3.3-4.68,3-1.14,6-2.23,9-3.44a5.79,5.79,0,0,1,4.72,0c3,1.22,6,2.3,9,3.45,2.48.94,3.19,1.92,3.22,4.57,0,3,.13,5.92,0,8.87-.11,1.67.54,2.31,2,2.79,2.6.85,5.14,1.93,7.75,2.81a4.1,4.1,0,0,1,3.1,4.2V38.35a4.14,4.14,0,0,1-2.63,3.95c-3.3,1.59-6.58,3.24-9.84,4.91a4.31,4.31,0,0,1-4.23,0c-3-1.54-6-3-9-4.55a3.25,3.25,0,0,0-3.52,0c-2.9,1.58-5.92,3-8.85,4.48a4.4,4.4,0,0,1-4.36,0c-3.22-1.66-6.44-3.3-9.71-4.85A4.35,4.35,0,0,1,.13,37.93C0,36.26,0,34.52,0,32.79Zm29.36-6c3.69,1.51,7,2.9,10.42,4.25a1.43,1.43,0,0,0,1,0c3.39-1.35,6.74-2.74,10.4-4.24-3.71-1.43-7.12-2.73-10.53-4a.93.93,0,0,0-.73,0c-3.42,1.26-6.83,2.57-10.56,4Zm-25.68,0c3.63,1.49,6.91,2.85,10.21,4.17a2,2,0,0,0,1.28,0c3.35-1.33,6.68-2.71,10.34-4.21-3.75-1.43-7.2-2.75-10.65-4a1.11,1.11,0,0,0-.74.05c-3.37,1.28-6.72,2.57-10.44,4ZM38.49,7.7C34.67,6.28,31.27,5,27.85,3.78A2.53,2.53,0,0,0,26.39,4c-2.49.9-5,1.84-7.44,2.76l-2.52,1c3.74,1.5,7,2.83,10.34,4.13a1.56,1.56,0,0,0,1,.12c3.46-1.31,6.89-2.71,10.72-4.25Zm12.74,23c-3.06,1.42-5.79,2.65-8.49,3.94a1.06,1.06,0,0,0-.57.76c-.05,2.56,0,5.12,0,7.92,3-1.5,5.7-2.85,8.4-4.25a1.32,1.32,0,0,0,.67-.89c0-2.36,0-4.73,0-7.46Zm-25.68,0c-3.07,1.41-5.84,2.66-8.59,4a1.12,1.12,0,0,0-.5.82v7.83c3-1.51,5.75-2.88,8.49-4.31a1.33,1.33,0,0,0,.6-.94c0-2.33,0-4.67,0-7.36Zm12.86-19c-3,1.26-5.8,2.43-8.58,3.64a1.09,1.09,0,0,0-.53.78v6.8c3-1.15,5.89-2.2,8.71-3.31a1,1,0,0,0,.4-.72c0-2.31,0-4.63,0-7.18Z"/></g></g></svg>