<svg xmlns="http://www.w3.org/2000/svg" viewBox="0 0 58.23 46.47"><defs><style>.cls-1{fill:#fff;}</style></defs><g id="Layer_2" data-name="Layer 2"><g id="Layer_1-2" data-name="Layer 1"><path class="cls-1" d="M24.76,0h21c1.41,0,2.67.26,3.35,1.7a2.51,2.51,0,0,1-.34,3c-3,3.37-6.08,6.74-9.16,10.07a3.67,3.67,0,0,1-1.48.73,17.24,17.24,0,0,0-7.3,28.21c.69.74.59,1.21-.08,1.81a3.56,3.56,0,0,1-4.44.3c-2.57-1.82-5.07-3.75-7.58-5.67a4,4,0,0,1-1.33-3.5V24.47a3.4,3.4,0,0,0-.76-2c-5-5.64-10.15-11.23-15.22-16.85C.58,4.65-.34,3.74.12,2.28.64.64,1.6,0,3.73,0Z"/><path class="cls-1" d="M43.76,17.44A14.55,14.55,0,0,1,58.23,31.9a14.54,14.54,0,0,1-29.07.16A14.59,14.59,0,0,1,43.72,17.44Zm-1.64,21.9c.25.85-.23,2.1,1.49,2.15s1.52-1.21,1.69-2.24a4.15,4.15,0,0,0,.62-8.15c-1.23-.41-2.52-.65-3.7-1.15a1.75,1.75,0,0,1-.81-1.37c0-.31.73-.84,1.15-.87a15.06,15.06,0,0,1,3.22.16c.87.13,2.46-.53,2.42-1.31,0-.48-.77-.95-1.25-1.36a1.57,1.57,0,0,0-.84-.31c-.71-.06-1-.4-.92-1.1.08-1.06-.56-1.27-1.48-1.28s-1.45.26-1.52,1.28a1.33,1.33,0,0,1-.64,1,4.47,4.47,0,0,0-3.19,3.95,4.35,4.35,0,0,0,3.28,4.16c1.07.34,2.15.65,3.23,1,.74.21,1.29.56,1.2,1.43s-.75,1.08-1.51,1c-1.07-.08-2.14-.13-3.2-.3s-1.63.67-2.11,1.37c-.1.14.58,1,1,1.28a7.74,7.74,0,0,0,1.83.72Z"/></g></g></svg>