<svg xmlns="http://www.w3.org/2000/svg" viewBox="0 0 48.39 48.22"><defs><style>.cls-1{fill:#fff;}</style></defs><g id="Layer_2" data-name="Layer 2"><g id="Layer_1-2" data-name="Layer 1"><path class="cls-1" d="M13.56,18.07v-6H11.94l-8.38-.43C2.51,8.86,3.33,6,3.07,3.14a9.73,9.73,0,0,1,0-1.08C3.07.54,3.58,0,5.07,0H28.26c1.5,0,2,.56,2,2.1v8c0,1.55-.47,2-2,2H19.82v6h21.8c3,0,3.84.79,4.32,3.78.72,4.47,1.7,8.91,2.19,13.4a78.13,78.13,0,0,1,.16,10.49,2.75,2.75,0,0,1-2.37,2.44,2.35,2.35,0,0,1-.53,0H3.05c-1.85,0-2.88-1.3-3-3.3A71.43,71.43,0,0,1,1.53,27.53c.46-2.28.79-4.59,1.21-6.88a2.68,2.68,0,0,1,2.6-2.47,12.69,12.69,0,0,1,1.74-.1ZM24.06,43.8h7.81c1.15,0,1.43-.53,1.43-1.58s-.32-1.57-1.45-1.56H16.64c-1.08,0-1.51.39-1.51,1.51s.34,1.66,1.53,1.63C19.13,43.77,21.6,43.8,24.06,43.8ZM25.65,4.63h-18V7.44h18Zm7.6,29.29c1.87,0,2.35-.44,2.34-2.23s-.56-2.32-2.34-2.31-2.2.46-2.2,2.24c0,2,.29,2.3,2.2,2.3Zm-9.11,0c2,0,2.36-.36,2.36-2.19s-.48-2.35-2.26-2.35-2.3.5-2.3,2.32.42,2.21,2.2,2.22Zm-2.22-9.71c0-1.88-.43-2.33-2.24-2.34s-2.31.57-2.31,2.34.47,2.19,2.25,2.2C21.61,26.39,21.92,26.07,21.92,24.21Zm6.74,2.2c1.93,0,2.37-.4,2.37-2.19s-.52-2.35-2.28-2.35-2.26.48-2.27,2.19c0,1.92.37,2.31,2.2,2.32Zm-18.11,0c1.91,0,2.37-.42,2.38-2.19s-.55-2.36-2.29-2.35-2.25.47-2.26,2.19c0,2,.33,2.31,2.19,2.32ZM15.13,34c1.87,0,2.34-.45,2.33-2.24s-.56-2.31-2.34-2.3-2.18.46-2.19,2.24c0,2,.31,2.27,2.22,2.27Zm22.62-7.54c2,0,2.27-.29,2.27-2.23s-.47-2.32-2.26-2.31-2.29.58-2.28,2.37.5,2.13,2.29,2.14Z"/></g></g></svg>