<?xml version="1.0" encoding="UTF-8"?><svg xmlns="http://www.w3.org/2000/svg" viewBox="0 0 55.91 55.9"><defs><style>.d{fill:#fff;}</style></defs><g id="a"/><g id="b"><g id="c"><path class="d" d="M.01,27.82C.08,12.38,12.65-.07,28.09,0c15.44,.07,27.89,12.64,27.82,28.08-.07,15.39-12.58,27.83-27.97,27.82C11.8,55.92-.42,42.38,.01,27.82Zm13.53,12.08c-.1,1.23,.82,2.31,2.05,2.41,.47,.04,.94-.07,1.34-.31,5.23-2.36,10.46-4.71,15.61-7.22,1.06-.6,1.91-1.51,2.43-2.61,2.38-4.92,4.6-9.91,6.89-14.88,.49-1.08,.81-2.15-.18-3.11s-2-.63-3.13-.14c-5,2.3-10.07,4.52-15,6.93-1.13,.59-2.04,1.52-2.61,2.66-2.39,4.91-4.61,9.9-6.88,14.87-.2,.46-.37,.92-.52,1.4Z"/><path class="d" d="M27.89,31.51c-1.96-.05-3.54-1.62-3.59-3.58,.02-2,1.67-3.61,3.67-3.59,2,.02,3.61,1.67,3.59,3.67-.1,1.96-1.71,3.5-3.67,3.5Z"/></g></g></svg>