<?xml version="1.0" encoding="UTF-8"?><svg xmlns="http://www.w3.org/2000/svg" viewBox="0 0 41.25 54.69"><defs><style>.d{fill:#fff;}</style></defs><g id="a"/><g id="b"><g id="c"><path class="d" d="M23.9,.44V14.4c0,2,.91,2.87,2.9,2.88h14.04c0,.67,.08,1.16,.08,1.65V50.99c0,2.92-.77,3.7-3.67,3.7H3.65c-2.83,0-3.65-.78-3.65-3.58V3.86C0,1.36,.86,.31,3.1,.29H23.17c.25,.03,.49,.08,.73,.15Zm-1.57,27c-.76-1,1-3.18-1.76-3.26-3-.1-1.28,2.24-2,3.34-2.77,.72-4.35,2.39-4.39,4.66s1.55,4.31,4.34,5.14c1.06,.31,2.13,.63,3.2,.92,.91,.24,1.67,.68,1.52,1.74-.15,1.06-1.05,1.29-2,1.23-1.16-.03-2.31-.17-3.44-.4-1.48-.39-1.95,.78-2.61,1.57-.09,.11,.67,1.15,1.21,1.51,.67,.36,1.38,.63,2.11,.82,.69,1.13-.91,3.24,1.82,3.31s1.25-2.17,1.92-3.3c.1-.06,.21-.11,.32-.15,2.86-.95,4.11-2.47,4.06-4.94s-1.5-4-4.3-4.77c-1.23-.29-2.44-.67-3.61-1.14-.51-.24-1.13-1.06-1.06-1.52,.25-.61,.78-1.05,1.43-1.17,1.34-.04,2.69,.08,4,.36,1.39,.27,1.85-.82,2.46-1.58,.11-.14-.55-1.15-1-1.47-.7-.39-1.45-.71-2.22-.94v.04Zm-10.35-10.11h3.95c1,0,1.13-.64,1.09-1.41s.3-1.92-1.05-1.95c-2.68-.05-5.37-.06-8.05,0-1.31,0-1,1.14-1,2s.17,1.39,1.14,1.38c1.28-.07,2.6-.06,3.92-.06v.04Zm-.12-6.77h3.95c1.31,0,1.19-.93,1.22-1.8s-.07-1.6-1.26-1.59h-7.6c-1.31,0-1.29,.79-1.3,1.72s.09,1.72,1.34,1.68,2.44-.01,3.65-.01Z"/><path class="d" d="M27.35,13.82V0c.96,.36,1.87,.84,2.71,1.44,3.33,3.19,6.59,6.44,9.76,9.75,.58,.81,1.06,1.7,1.43,2.63h-13.9Z"/></g></g></svg>