<svg xmlns="http://www.w3.org/2000/svg" viewBox="0 0 52.4 52.24"><defs><style>.cls-1{fill:#fff;}</style></defs><g id="Layer_2" data-name="Layer 2"><g id="Layer_1-2" data-name="Layer 1"><path class="cls-1" d="M52.4,15.52A14.83,14.83,0,0,1,48.13,26.2c-1.29,1.32-2.58,2.65-3.92,3.92-1.18,1.13-2.57.68-2.91-.93a45.93,45.93,0,0,1-1-5.58,3.3,3.3,0,0,1,1-2.09,9.83,9.83,0,0,0,2.76-4.7,7.3,7.3,0,0,0-3.45-7.61,7,7,0,0,0-8.06.45A104.55,104.55,0,0,0,24.2,18c-2.43,2.75-1.87,7.06.91,9.76,2,1.91,2,3.34.05,5.29l-.32.3c-2.82,2.75-2.95,2.75-5.82,0a15.48,15.48,0,0,1-.59-21.27C21,9.39,23.6,6.8,26.27,4.23A15.5,15.5,0,0,1,52.4,15.52Z"/><path class="cls-1" d="M15.63,52.23C8.94,52.08,4.12,48.91,1.34,42.9A15.16,15.16,0,0,1,4.4,26c1.22-1.27,2.44-2.54,3.74-3.71a2.31,2.31,0,0,1,1.73-.68,2.52,2.52,0,0,1,1.28,1.54,33.5,33.5,0,0,1,1.06,5.42,3.38,3.38,0,0,1-1,2.11c-1.34,1.51-2.58,3-2.85,5.13a7.3,7.3,0,0,0,3.72,7.34A7,7,0,0,0,20,42.51c2.73-2.49,5.4-5.07,7.88-7.81,2.83-3.14,2.46-7.39-.61-10.34-1.8-1.73-1.82-3.28-.07-5.08l.31-.31c3-2.85,2.59-3.2,6,0A15.32,15.32,0,0,1,34.1,40c-2.68,2.9-5.5,5.67-8.37,8.37A14,14,0,0,1,15.63,52.23Z"/></g></g></svg>